<svg xmlns="http://www.w3.org/2000/svg" viewBox="0 0 500 500"><g id="freepik--background-simple--inject-10"><path d="M81.91,305.64s25,57,88.21,75.64,130.71-6.2,185.87-24.87S440.16,290,427.87,241.05s-58.76-45.43-102.1-88.9S277.49,90.54,217.43,77.7,91.63,115.41,75.19,187,81.91,305.64,81.91,305.64Z" style="fill:#92E3A9"></path><path d="M81.91,305.64s25,57,88.21,75.64,130.71-6.2,185.87-24.87S440.16,290,427.87,241.05s-58.76-45.43-102.1-88.9S277.49,90.54,217.43,77.7,91.63,115.41,75.19,187,81.91,305.64,81.91,305.64Z" style="fill:#fff;opacity:0.8"></path></g><g id="freepik--Trees--inject-10"><path d="M403,228.6s22.92,2.27,34.53,16.48c0,0,12.28-16.46,34.32-16.12a44.55,44.55,0,1,0-68.86-.32Z" style="fill:#92E3A9"></path><path d="M403,228.6s22.92,2.27,34.53,16.48c0,0,12.28-16.46,34.32-16.12a44.55,44.55,0,1,0-68.86-.32Z" style="fill:#fff;opacity:0.5"></path><polygon points="436.76 159.12 435.99 307.66 439.86 307.66 436.76 159.12" style="fill:#b8b8b8"></polygon><path d="M437.93,240.75s7.73-13.93,21.66-18.19c0,0-14.7,3.49-22,15.48Z" style="fill:#b8b8b8"></path><path d="M437.93,201.29s7.73-13.93,21.66-18.19c0,0-14.7,3.48-22,15.48Z" style="fill:#b8b8b8"></path><path d="M437.93,221s7.73-13.93,21.66-18.19c0,0-14.7,3.49-22,15.48Z" style="fill:#b8b8b8"></path><path d="M436.78,211.34s-7.47-13.92-20.91-18.18c0,0,14.19,3.48,21.28,15.48Z" style="fill:#b8b8b8"></path><path d="M436.78,230.69s-7.47-13.93-20.91-18.18c0,0,14.19,3.48,21.28,15.47Z" style="fill:#b8b8b8"></path><path d="M27.87,228.6s22.92,2.27,34.53,16.48c0,0,12.28-16.46,34.32-16.12a44.55,44.55,0,1,0-68.86-.32Z" style="fill:#92E3A9"></path><path d="M27.87,228.6s22.92,2.27,34.53,16.48c0,0,12.28-16.46,34.32-16.12a44.55,44.55,0,1,0-68.86-.32Z" style="fill:#fff;opacity:0.5"></path><polygon points="61.65 159.12 60.87 307.66 64.74 307.66 61.65 159.12" style="fill:#b8b8b8"></polygon><path d="M62.81,240.75s7.73-13.93,21.66-18.19c0,0-14.7,3.49-22,15.48Z" style="fill:#b8b8b8"></path><path d="M62.81,201.29s7.73-13.93,21.66-18.19c0,0-14.7,3.48-22,15.48Z" style="fill:#b8b8b8"></path><path d="M62.81,221s7.73-13.93,21.66-18.19c0,0-14.7,3.49-22,15.48Z" style="fill:#b8b8b8"></path><path d="M61.66,211.34s-7.47-13.92-20.91-18.18c0,0,14.19,3.48,21.28,15.48Z" style="fill:#b8b8b8"></path><path d="M61.66,230.69s-7.47-13.93-20.91-18.18c0,0,14.19,3.48,21.28,15.47Z" style="fill:#b8b8b8"></path><path d="M309.87,243s18.76,1.85,28.26,13.48c0,0,10.05-13.47,28.09-13.2a36.46,36.46,0,1,0-56.36-.25Z" style="fill:#92E3A9"></path><path d="M309.87,243s18.76,1.85,28.26,13.48c0,0,10.05-13.47,28.09-13.2a36.46,36.46,0,1,0-56.36-.25Z" style="fill:#fff;opacity:0.5"></path><polygon points="337.51 186.08 336.88 307.66 340.05 307.66 337.51 186.08" style="fill:#b8b8b8"></polygon><path d="M338.46,252.9s6.34-11.4,17.73-14.89c0,0-12,2.85-18,12.67Z" style="fill:#b8b8b8"></path><path d="M338.46,220.6s6.34-11.4,17.73-14.88c0,0-12,2.85-18,12.66Z" style="fill:#b8b8b8"></path><path d="M338.46,236.75s6.34-11.4,17.73-14.89c0,0-12,2.85-18,12.67Z" style="fill:#b8b8b8"></path><path d="M337.52,228.83s-6.11-11.4-17.11-14.88c0,0,11.61,2.85,17.42,12.66Z" style="fill:#b8b8b8"></path><path d="M337.52,244.66s-6.11-11.4-17.11-14.88c0,0,11.61,2.85,17.42,12.67Z" style="fill:#b8b8b8"></path><path d="M128.36,243s18.76,1.85,28.26,13.48c0,0,10-13.47,28.09-13.2a36.46,36.46,0,1,0-56.36-.25Z" style="fill:#92E3A9"></path><path d="M128.36,243s18.76,1.85,28.26,13.48c0,0,10-13.47,28.09-13.2a36.46,36.46,0,1,0-56.36-.25Z" style="fill:#fff;opacity:0.5"></path><polygon points="156 186.08 155.37 307.66 158.54 307.66 156 186.08" style="fill:#b8b8b8"></polygon><path d="M157,252.9s6.34-11.4,17.73-14.89c0,0-12,2.85-18,12.67Z" style="fill:#b8b8b8"></path><path d="M157,220.6s6.34-11.4,17.73-14.88c0,0-12,2.85-18,12.66Z" style="fill:#b8b8b8"></path><path d="M157,236.75s6.34-11.4,17.73-14.89c0,0-12,2.85-18,12.67Z" style="fill:#b8b8b8"></path><path d="M156,228.83S149.9,217.43,138.9,214c0,0,11.61,2.85,17.42,12.66Z" style="fill:#b8b8b8"></path><path d="M156,244.66s-6.11-11.4-17.11-14.88c0,0,11.61,2.85,17.42,12.67Z" style="fill:#b8b8b8"></path><line x1="34.77" y1="308.19" x2="466.31" y2="308.19" style="fill:none;stroke:#263238;stroke-miterlimit:10;stroke-width:1.04742px"></line></g><g id="freepik--Text--inject-10"><path d="M188.51,120.72c0-7.73,4.08-12.15,11.53-12.15s11.54,4.42,11.54,12.15v25.14c0,7.73-4.08,12.15-11.54,12.15s-11.53-4.42-11.53-12.15Zm7.6,25.62c0,3.45,1.52,4.76,3.93,4.76s3.94-1.31,3.94-4.76v-26.1c0-3.45-1.52-4.76-3.94-4.76s-3.93,1.31-3.93,4.76Z" style="fill:#263238"></path><path d="M217.31,120.72c0-7.73,4.07-12.15,11.53-12.15s11.53,4.42,11.53,12.15v25.14c0,7.73-4.08,12.15-11.53,12.15s-11.53-4.42-11.53-12.15Zm7.59,25.62c0,3.45,1.52,4.76,3.94,4.76s3.93-1.31,3.93-4.76v-26.1c0-3.45-1.52-4.76-3.93-4.76s-3.94,1.31-3.94,4.76Z" style="fill:#263238"></path><path d="M269.23,121.07v6.28c0,7.74-3.73,12-11.32,12h-3.59v18.16h-7.6V109.13h11.19C265.5,109.13,269.23,113.34,269.23,121.07Zm-14.91-5v16.36h3.59c2.41,0,3.72-1.1,3.72-4.55v-7.25c0-3.46-1.31-4.56-3.72-4.56Z" style="fill:#263238"></path><path d="M284.77,108.57c7.38,0,11.18,4.42,11.18,12.15v1.52h-7.18v-2c0-3.45-1.38-4.76-3.8-4.76s-3.8,1.31-3.8,4.76c0,9.94,14.85,11.81,14.85,25.62,0,7.73-3.87,12.15-11.32,12.15s-11.33-4.42-11.33-12.15v-3h7.18v3.45c0,3.45,1.52,4.7,3.94,4.7s3.93-1.25,3.93-4.7c0-9.94-14.84-11.81-14.84-25.62C273.58,113,277.38,108.57,284.77,108.57Z" style="fill:#263238"></path><path d="M302.79,146.75l-1-17.46V109.13h7.6v20.16l-1,17.46Zm6.49,3.39v7.32H302v-7.32Z" style="fill:#263238"></path><path d="M172.12,412.17c3.56,0,5.08,2.11,5.08,5.54v2.72c0,3.59-1.68,5.47-5.27,5.47h-2.24v8.93h-2.52V412.17Zm-.19,11.46c1.87,0,2.78-.87,2.78-3v-3c0-2.07-.75-3.11-2.59-3.11h-2.43v9.16Z" style="fill:#263238"></path><path d="M182.06,430.26l-.88,4.57h-2.33l4.34-22.66h3.66l4.34,22.66h-2.53l-.87-4.57Zm.32-2.16h5.05L184.87,415Z" style="fill:#263238"></path><path d="M203.81,417.64v1.94h-2.4v-2.07c0-2-.81-3.26-2.65-3.26s-2.65,1.22-2.65,3.26v12c0,2,.84,3.27,2.65,3.27s2.65-1.23,2.65-3.27V425h-2.33v-2.27h4.73v6.67c0,3.43-1.62,5.69-5.11,5.69s-5.09-2.26-5.09-5.69V417.64c0-3.43,1.62-5.69,5.09-5.69S203.81,414.21,203.81,417.64Z" style="fill:#263238"></path><path d="M214.91,422.21v2.26h-5.53v8.06h6.79v2.3h-9.32V412.17h9.32v2.3h-6.79v7.74Z" style="fill:#263238"></path><path d="M227.05,434.83h-2.26V412.17H228l5.24,16.38V412.17h2.24v22.66h-2.63l-5.79-18.32Z" style="fill:#263238"></path><path d="M238.51,417.64c0-3.46,1.71-5.69,5.18-5.69s5.21,2.23,5.21,5.69v11.72c0,3.43-1.72,5.69-5.21,5.69s-5.18-2.26-5.18-5.69ZM241,429.49c0,2.07.88,3.27,2.69,3.27s2.68-1.2,2.68-3.27v-12c0-2-.84-3.26-2.68-3.26s-2.69,1.22-2.69,3.26Z" style="fill:#263238"></path><path d="M255.24,434.83V414.47h-4.17v-2.3h10.87v2.3h-4.17v20.36Z" style="fill:#263238"></path><path d="M277.74,422.72V425h-5.21v9.81H270V412.17h9v2.3h-6.47v8.25Z" style="fill:#263238"></path><path d="M281.46,417.64c0-3.46,1.72-5.69,5.18-5.69s5.21,2.23,5.21,5.69v11.72c0,3.43-1.71,5.69-5.21,5.69s-5.18-2.26-5.18-5.69Zm2.5,11.85c0,2.07.87,3.27,2.68,3.27s2.69-1.2,2.69-3.27v-12c0-2-.84-3.26-2.69-3.26s-2.68,1.22-2.68,3.26Z" style="fill:#263238"></path><path d="M297.29,429.49c0,2,.81,3.27,2.65,3.27s2.63-1.23,2.63-3.27V412.17h2.36v17.19c0,3.43-1.59,5.73-5.08,5.73s-5.05-2.3-5.05-5.73V412.17h2.49Z" style="fill:#263238"></path><path d="M310.3,434.83H308V412.17h3.2l5.24,16.38V412.17h2.24v22.66H316.1l-5.8-18.32Z" style="fill:#263238"></path><path d="M327.26,412.17c3.53,0,5.15,2.14,5.15,5.63v11.43c0,3.46-1.62,5.6-5.15,5.6H322V412.17Zm0,20.36c1.81,0,2.69-1.13,2.69-3.2V417.67c0-2.07-.88-3.2-2.72-3.2h-2.72v18.06Z" style="fill:#263238"></path></g></svg>