<svg xmlns="http://www.w3.org/2000/svg" viewBox="0 0 500 500"><g id="freepik--background-simple--inject-59"><path d="M478.47,221a290.11,290.11,0,0,0-10.69-32.13C438.53,115.58,375.83,60.32,297.71,45c-77.65-15.28-212,5.67-231.61,100.2C62,164.73,65.83,185,65.73,205c-.2,38-16.47,65.93-34.18,98C18.22,327,6.87,354.74,13.2,381.57,17.3,399,28.52,414,41.54,426.22c44.08,41.52,103.12,50,161,40.52,27.44-4.51,54.18-16.5,81.31-19.89,34.75-4.35,69.84,6.81,104.44-.77,33.22-7.28,61.32-31.46,77.71-61.25C493.32,335.25,492.85,274.4,478.47,221Z" style="fill:#92E3A9"></path><path d="M478.47,221a290.11,290.11,0,0,0-10.69-32.13C438.53,115.58,375.83,60.32,297.71,45c-77.65-15.28-212,5.67-231.61,100.2C62,164.73,65.83,185,65.73,205c-.2,38-16.47,65.93-34.18,98C18.22,327,6.87,354.74,13.2,381.57,17.3,399,28.52,414,41.54,426.22c44.08,41.52,103.12,50,161,40.52,27.44-4.51,54.18-16.5,81.31-19.89,34.75-4.35,69.84,6.81,104.44-.77,33.22-7.28,61.32-31.46,77.71-61.25C493.32,335.25,492.85,274.4,478.47,221Z" style="fill:#fff;opacity:0.7000000000000001"></path></g><g id="freepik--Screen--inject-59"><rect x="74.67" y="90.1" width="353.83" height="344.85" style="fill:#fff;stroke:#263238;stroke-linejoin:round"></rect><rect x="74.67" y="90.1" width="353.83" height="24.4" style="fill:#92E3A9;stroke:#263238;stroke-linejoin:round"></rect><rect x="74.67" y="90.1" width="353.83" height="7.85" style="fill:#263238;stroke:#263238;stroke-linejoin:round"></rect><path d="M411.34,94.11a1.83,1.83,0,1,0-1.83,1.83A1.83,1.83,0,0,0,411.34,94.11Z" style="fill:#fff;stroke:#263238;stroke-linejoin:round"></path><path d="M416.6,94.11a1.83,1.83,0,1,0-1.82,1.83A1.82,1.82,0,0,0,416.6,94.11Z" style="fill:#fff;stroke:#263238;stroke-linejoin:round"></path><path d="M421.87,94.11A1.83,1.83,0,1,0,420,95.94,1.83,1.83,0,0,0,421.87,94.11Z" style="fill:#fff;stroke:#263238;stroke-linejoin:round"></path><rect x="99.69" y="101.42" width="144.58" height="8.25" style="fill:#fff;stroke:#263238;stroke-linejoin:round"></rect><line x1="412.03" y1="103.98" x2="422.1" y2="103.98" style="fill:none;stroke:#263238;stroke-linejoin:round"></line><line x1="412.03" y1="106.72" x2="422.1" y2="106.72" style="fill:none;stroke:#263238;stroke-linejoin:round"></line><line x1="412.03" y1="109.47" x2="422.1" y2="109.47" style="fill:none;stroke:#263238;stroke-linejoin:round"></line><path d="M101.45,155.08H95.26a1.53,1.53,0,0,1,0-3.05h6.19a1.53,1.53,0,0,1,0,3.05Zm1.52,5.54a1.52,1.52,0,0,0-1.52-1.52H95.26a1.53,1.53,0,0,0,0,3.05h6.19A1.52,1.52,0,0,0,103,160.62Zm0,7.07a1.53,1.53,0,0,0-1.52-1.53H95.26a1.53,1.53,0,0,0,0,3.05h6.19A1.52,1.52,0,0,0,103,167.69Zm0,7.07a1.52,1.52,0,0,0-1.52-1.53H95.26a1.53,1.53,0,0,0,0,3.05h6.19A1.52,1.52,0,0,0,103,174.76Zm0,7.06a1.52,1.52,0,0,0-1.52-1.52H95.26a1.53,1.53,0,0,0,0,3h6.19A1.52,1.52,0,0,0,103,181.82Zm0,7.07a1.52,1.52,0,0,0-1.52-1.52H95.26a1.52,1.52,0,0,0,0,3h6.19A1.52,1.52,0,0,0,103,188.89Zm0,7.07a1.52,1.52,0,0,0-1.52-1.53H95.26a1.53,1.53,0,0,0,0,3h6.19A1.52,1.52,0,0,0,103,196Zm0,7.06a1.52,1.52,0,0,0-1.52-1.52H95.26a1.53,1.53,0,0,0,0,3.05h6.19A1.52,1.52,0,0,0,103,203Zm23.13-49.46a1.52,1.52,0,0,0-1.52-1.53H108.35a1.53,1.53,0,1,0,0,3.05h16.23A1.52,1.52,0,0,0,126.1,153.56Zm0,7.06a1.52,1.52,0,0,0-1.52-1.52H108.35a1.53,1.53,0,1,0,0,3.05h16.23A1.52,1.52,0,0,0,126.1,160.62Zm0,7.07a1.53,1.53,0,0,0-1.52-1.53H108.35a1.53,1.53,0,1,0,0,3.05h16.23A1.52,1.52,0,0,0,126.1,167.69Zm0,7.07a1.52,1.52,0,0,0-1.52-1.53H108.35a1.53,1.53,0,1,0,0,3.05h16.23A1.52,1.52,0,0,0,126.1,174.76Zm0,7.06a1.52,1.52,0,0,0-1.52-1.52H108.35a1.53,1.53,0,1,0,0,3h16.23A1.52,1.52,0,0,0,126.1,181.82Zm19.44,7.07a1.52,1.52,0,0,0-1.53-1.52H127.78a1.52,1.52,0,1,0,0,3H144A1.52,1.52,0,0,0,145.54,188.89Zm0,7.07a1.52,1.52,0,0,0-1.53-1.53H127.78a1.53,1.53,0,0,0,0,3H144A1.52,1.52,0,0,0,145.54,196Zm0,7.06A1.52,1.52,0,0,0,144,201.5H127.78a1.53,1.53,0,0,0,0,3.05H144A1.52,1.52,0,0,0,145.54,203Zm-12.29-49.46a1.77,1.77,0,1,0-1.77,1.76A1.77,1.77,0,0,0,133.25,153.56Zm5.3,0a1.77,1.77,0,1,0-1.77,1.76A1.77,1.77,0,0,0,138.55,153.56Zm5.3,0a1.77,1.77,0,1,0-1.77,1.76A1.77,1.77,0,0,0,143.85,153.56Zm5.3,0a1.77,1.77,0,1,0-1.77,1.76A1.77,1.77,0,0,0,149.15,153.56Zm5.3,0a1.77,1.77,0,1,0-1.77,1.76A1.77,1.77,0,0,0,154.45,153.56Zm5.3,0a1.77,1.77,0,1,0-1.77,1.76A1.77,1.77,0,0,0,159.75,153.56Zm-26.5,14.13a1.77,1.77,0,1,0-1.77,1.77A1.77,1.77,0,0,0,133.25,167.69Zm5.3,0a1.77,1.77,0,1,0-1.77,1.77A1.77,1.77,0,0,0,138.55,167.69Zm5.3,0a1.77,1.77,0,1,0-1.77,1.77A1.77,1.77,0,0,0,143.85,167.69Zm5.3,0a1.77,1.77,0,1,0-1.77,1.77A1.77,1.77,0,0,0,149.15,167.69Zm5.3,0a1.77,1.77,0,1,0-1.77,1.77A1.77,1.77,0,0,0,154.45,167.69Zm5.3,0a1.77,1.77,0,1,0-1.77,1.77A1.77,1.77,0,0,0,159.75,167.69ZM151.36,188a1.77,1.77,0,1,0-1.77,1.76A1.77,1.77,0,0,0,151.36,188Zm5.3,0a1.77,1.77,0,1,0-1.77,1.76A1.77,1.77,0,0,0,156.66,188Zm5.3,0a1.77,1.77,0,1,0-1.77,1.76A1.77,1.77,0,0,0,162,188Zm5.3,0a1.77,1.77,0,1,0-1.77,1.76A1.77,1.77,0,0,0,167.26,188Zm5.3,0a1.77,1.77,0,1,0-1.77,1.76A1.77,1.77,0,0,0,172.56,188Zm5.3,0a1.77,1.77,0,1,0-1.77,1.76A1.77,1.77,0,0,0,177.86,188Zm-26.5,14.57a1.77,1.77,0,1,0-1.77,1.77A1.78,1.78,0,0,0,151.36,202.58Zm5.3,0a1.77,1.77,0,1,0-1.77,1.77A1.78,1.78,0,0,0,156.66,202.58Zm5.3,0a1.77,1.77,0,1,0-1.77,1.77A1.78,1.78,0,0,0,162,202.58Zm5.3,0a1.77,1.77,0,1,0-1.77,1.77A1.78,1.78,0,0,0,167.26,202.58Zm5.3,0a1.77,1.77,0,1,0-1.77,1.77A1.78,1.78,0,0,0,172.56,202.58Zm5.3,0a1.77,1.77,0,1,0-1.77,1.77A1.78,1.78,0,0,0,177.86,202.58Z" style="fill:#92E3A9"></path><path d="M101.45,211.63H95.26a1.53,1.53,0,0,1,0-3h6.19a1.53,1.53,0,0,1,0,3Zm1.52,5.54a1.52,1.52,0,0,0-1.52-1.52H95.26a1.53,1.53,0,0,0,0,3h6.19A1.53,1.53,0,0,0,103,217.17Zm0,7.07a1.52,1.52,0,0,0-1.52-1.53H95.26a1.53,1.53,0,0,0,0,3h6.19A1.52,1.52,0,0,0,103,224.24Zm0,7.06a1.52,1.52,0,0,0-1.52-1.52H95.26a1.53,1.53,0,0,0,0,3.05h6.19A1.52,1.52,0,0,0,103,231.3Zm0,7.07a1.53,1.53,0,0,0-1.52-1.53H95.26a1.53,1.53,0,0,0,0,3h6.19A1.52,1.52,0,0,0,103,238.37Zm0,7.07a1.52,1.52,0,0,0-1.52-1.53H95.26a1.53,1.53,0,0,0,0,3.05h6.19A1.52,1.52,0,0,0,103,245.44Zm0,7.06a1.52,1.52,0,0,0-1.52-1.52H95.26a1.53,1.53,0,0,0,0,3.05h6.19A1.52,1.52,0,0,0,103,252.5Zm0,7.07a1.52,1.52,0,0,0-1.52-1.52H95.26a1.53,1.53,0,0,0,0,3.05h6.19A1.53,1.53,0,0,0,103,259.57ZM126.1,210.1a1.52,1.52,0,0,0-1.52-1.52H108.35a1.53,1.53,0,1,0,0,3h16.23A1.52,1.52,0,0,0,126.1,210.1Zm0,7.07a1.52,1.52,0,0,0-1.52-1.52H108.35a1.53,1.53,0,1,0,0,3h16.23A1.53,1.53,0,0,0,126.1,217.17Zm0,7.07a1.52,1.52,0,0,0-1.52-1.53H108.35a1.53,1.53,0,1,0,0,3h16.23A1.52,1.52,0,0,0,126.1,224.24Zm0,7.06a1.52,1.52,0,0,0-1.52-1.52H108.35a1.53,1.53,0,1,0,0,3.05h16.23A1.52,1.52,0,0,0,126.1,231.3Zm0,7.07a1.53,1.53,0,0,0-1.52-1.53H108.35a1.53,1.53,0,1,0,0,3h16.23A1.52,1.52,0,0,0,126.1,238.37Zm19.44,7.07a1.52,1.52,0,0,0-1.53-1.53H127.78a1.53,1.53,0,0,0,0,3.05H144A1.52,1.52,0,0,0,145.54,245.44Zm0,7.06A1.52,1.52,0,0,0,144,251H127.78a1.53,1.53,0,0,0,0,3.05H144A1.52,1.52,0,0,0,145.54,252.5Zm0,7.07a1.52,1.52,0,0,0-1.53-1.52H127.78a1.53,1.53,0,0,0,0,3.05H144A1.53,1.53,0,0,0,145.54,259.57ZM133.25,210.1a1.77,1.77,0,1,0-1.77,1.77A1.76,1.76,0,0,0,133.25,210.1Zm5.3,0a1.77,1.77,0,1,0-1.77,1.77A1.76,1.76,0,0,0,138.55,210.1Zm5.3,0a1.77,1.77,0,1,0-1.77,1.77A1.76,1.76,0,0,0,143.85,210.1Zm5.3,0a1.77,1.77,0,1,0-1.77,1.77A1.76,1.76,0,0,0,149.15,210.1Zm5.3,0a1.77,1.77,0,1,0-1.77,1.77A1.76,1.76,0,0,0,154.45,210.1Zm5.3,0a1.77,1.77,0,1,0-1.77,1.77A1.76,1.76,0,0,0,159.75,210.1Zm-26.5,14.14a1.77,1.77,0,1,0-1.77,1.76A1.77,1.77,0,0,0,133.25,224.24Zm5.3,0a1.77,1.77,0,1,0-1.77,1.76A1.77,1.77,0,0,0,138.55,224.24Zm5.3,0a1.77,1.77,0,1,0-1.77,1.76A1.77,1.77,0,0,0,143.85,224.24Zm5.3,0a1.77,1.77,0,1,0-1.77,1.76A1.77,1.77,0,0,0,149.15,224.24Zm5.3,0a1.77,1.77,0,1,0-1.77,1.76A1.77,1.77,0,0,0,154.45,224.24Zm5.3,0A1.77,1.77,0,1,0,158,226,1.77,1.77,0,0,0,159.75,224.24Zm-8.39,20.31a1.77,1.77,0,1,0-1.77,1.77A1.77,1.77,0,0,0,151.36,244.55Zm5.3,0a1.77,1.77,0,1,0-1.77,1.77A1.77,1.77,0,0,0,156.66,244.55Zm5.3,0a1.77,1.77,0,1,0-1.77,1.77A1.77,1.77,0,0,0,162,244.55Zm5.3,0a1.77,1.77,0,1,0-1.77,1.77A1.77,1.77,0,0,0,167.26,244.55Zm5.3,0a1.77,1.77,0,1,0-1.77,1.77A1.77,1.77,0,0,0,172.56,244.55Zm5.3,0a1.77,1.77,0,1,0-1.77,1.77A1.77,1.77,0,0,0,177.86,244.55Zm-26.5,14.58a1.77,1.77,0,1,0-1.77,1.77A1.77,1.77,0,0,0,151.36,259.13Zm5.3,0a1.77,1.77,0,1,0-1.77,1.77A1.77,1.77,0,0,0,156.66,259.13Zm5.3,0a1.77,1.77,0,1,0-1.77,1.77A1.77,1.77,0,0,0,162,259.13Zm5.3,0a1.77,1.77,0,1,0-1.77,1.77A1.77,1.77,0,0,0,167.26,259.13Zm5.3,0a1.77,1.77,0,1,0-1.77,1.77A1.77,1.77,0,0,0,172.56,259.13Zm5.3,0a1.77,1.77,0,1,0-1.77,1.77A1.77,1.77,0,0,0,177.86,259.13Z" style="fill:#92E3A9"></path><path d="M101.45,269.54H95.26a1.53,1.53,0,0,1,0-3.05h6.19a1.53,1.53,0,0,1,0,3.05Zm1.52,5.54a1.52,1.52,0,0,0-1.52-1.52H95.26a1.53,1.53,0,0,0,0,3.05h6.19A1.52,1.52,0,0,0,103,275.08Zm0,7.07a1.53,1.53,0,0,0-1.52-1.53H95.26a1.53,1.53,0,0,0,0,3.05h6.19A1.52,1.52,0,0,0,103,282.15Zm0,7.07a1.52,1.52,0,0,0-1.52-1.53H95.26a1.53,1.53,0,0,0,0,3.05h6.19A1.52,1.52,0,0,0,103,289.22Zm0,7.06a1.52,1.52,0,0,0-1.52-1.52H95.26a1.53,1.53,0,0,0,0,3.05h6.19A1.52,1.52,0,0,0,103,296.28Zm0,7.07a1.52,1.52,0,0,0-1.52-1.52H95.26a1.53,1.53,0,0,0,0,3.05h6.19A1.53,1.53,0,0,0,103,303.35Zm0,7.07a1.52,1.52,0,0,0-1.52-1.53H95.26a1.53,1.53,0,0,0,0,3.05h6.19A1.52,1.52,0,0,0,103,310.42Zm0,7.06a1.52,1.52,0,0,0-1.52-1.52H95.26a1.53,1.53,0,0,0,0,3.05h6.19A1.52,1.52,0,0,0,103,317.48ZM126.1,268a1.52,1.52,0,0,0-1.52-1.53H108.35a1.53,1.53,0,1,0,0,3.05h16.23A1.52,1.52,0,0,0,126.1,268Zm0,7.06a1.52,1.52,0,0,0-1.52-1.52H108.35a1.53,1.53,0,1,0,0,3.05h16.23A1.52,1.52,0,0,0,126.1,275.08Zm0,7.07a1.53,1.53,0,0,0-1.52-1.53H108.35a1.53,1.53,0,1,0,0,3.05h16.23A1.52,1.52,0,0,0,126.1,282.15Zm0,7.07a1.52,1.52,0,0,0-1.52-1.53H108.35a1.53,1.53,0,1,0,0,3.05h16.23A1.52,1.52,0,0,0,126.1,289.22Zm0,7.06a1.52,1.52,0,0,0-1.52-1.52H108.35a1.53,1.53,0,1,0,0,3.05h16.23A1.52,1.52,0,0,0,126.1,296.28Zm19.44,7.07a1.52,1.52,0,0,0-1.53-1.52H127.78a1.53,1.53,0,0,0,0,3.05H144A1.53,1.53,0,0,0,145.54,303.35Zm0,7.07a1.52,1.52,0,0,0-1.53-1.53H127.78a1.53,1.53,0,0,0,0,3.05H144A1.52,1.52,0,0,0,145.54,310.42Zm0,7.06A1.52,1.52,0,0,0,144,316H127.78a1.53,1.53,0,0,0,0,3.05H144A1.52,1.52,0,0,0,145.54,317.48ZM133.25,268a1.77,1.77,0,1,0-1.77,1.76A1.77,1.77,0,0,0,133.25,268Zm5.3,0a1.77,1.77,0,1,0-1.77,1.76A1.77,1.77,0,0,0,138.55,268Zm5.3,0a1.77,1.77,0,1,0-1.77,1.76A1.77,1.77,0,0,0,143.85,268Zm5.3,0a1.77,1.77,0,1,0-1.77,1.76A1.77,1.77,0,0,0,149.15,268Zm5.3,0a1.77,1.77,0,1,0-1.77,1.76A1.77,1.77,0,0,0,154.45,268Zm5.3,0a1.77,1.77,0,1,0-1.77,1.76A1.77,1.77,0,0,0,159.75,268Zm-26.5,14.13a1.77,1.77,0,1,0-1.77,1.77A1.77,1.77,0,0,0,133.25,282.15Zm5.3,0a1.77,1.77,0,1,0-1.77,1.77A1.77,1.77,0,0,0,138.55,282.15Zm5.3,0a1.77,1.77,0,1,0-1.77,1.77A1.77,1.77,0,0,0,143.85,282.15Zm5.3,0a1.77,1.77,0,1,0-1.77,1.77A1.77,1.77,0,0,0,149.15,282.15Zm5.3,0a1.77,1.77,0,1,0-1.77,1.77A1.77,1.77,0,0,0,154.45,282.15Zm5.3,0a1.77,1.77,0,1,0-1.77,1.77A1.77,1.77,0,0,0,159.75,282.15Zm-8.39,20.32a1.77,1.77,0,1,0-1.77,1.76A1.77,1.77,0,0,0,151.36,302.47Zm5.3,0a1.77,1.77,0,1,0-1.77,1.76A1.77,1.77,0,0,0,156.66,302.47Zm5.3,0a1.77,1.77,0,1,0-1.77,1.76A1.77,1.77,0,0,0,162,302.47Zm5.3,0a1.77,1.77,0,1,0-1.77,1.76A1.77,1.77,0,0,0,167.26,302.47Zm5.3,0a1.77,1.77,0,1,0-1.77,1.76A1.77,1.77,0,0,0,172.56,302.47Zm5.3,0a1.77,1.77,0,1,0-1.77,1.76A1.77,1.77,0,0,0,177.86,302.47ZM151.36,317a1.77,1.77,0,1,0-1.77,1.77A1.78,1.78,0,0,0,151.36,317Zm5.3,0a1.77,1.77,0,1,0-1.77,1.77A1.78,1.78,0,0,0,156.66,317Zm5.3,0a1.77,1.77,0,1,0-1.77,1.77A1.78,1.78,0,0,0,162,317Zm5.3,0a1.77,1.77,0,1,0-1.77,1.77A1.78,1.78,0,0,0,167.26,317Zm5.3,0a1.77,1.77,0,1,0-1.77,1.77A1.78,1.78,0,0,0,172.56,317Zm5.3,0a1.77,1.77,0,1,0-1.77,1.77A1.78,1.78,0,0,0,177.86,317Z" style="fill:#92E3A9"></path><path d="M196.38,155.08H190.2a1.53,1.53,0,1,1,0-3.05h6.18a1.53,1.53,0,0,1,0,3.05Zm1.52,5.54a1.52,1.52,0,0,0-1.52-1.52H190.2a1.53,1.53,0,1,0,0,3.05h6.18A1.52,1.52,0,0,0,197.9,160.62Zm0,7.07a1.53,1.53,0,0,0-1.52-1.53H190.2a1.53,1.53,0,1,0,0,3.05h6.18A1.52,1.52,0,0,0,197.9,167.69Zm0,7.07a1.52,1.52,0,0,0-1.52-1.53H190.2a1.53,1.53,0,1,0,0,3.05h6.18A1.52,1.52,0,0,0,197.9,174.76Zm0,7.06a1.52,1.52,0,0,0-1.52-1.52H190.2a1.53,1.53,0,1,0,0,3h6.18A1.52,1.52,0,0,0,197.9,181.82Zm0,7.07a1.52,1.52,0,0,0-1.52-1.52H190.2a1.52,1.52,0,1,0,0,3h6.18A1.52,1.52,0,0,0,197.9,188.89Zm0,7.07a1.52,1.52,0,0,0-1.52-1.53H190.2a1.53,1.53,0,1,0,0,3h6.18A1.52,1.52,0,0,0,197.9,196Zm0,7.06a1.52,1.52,0,0,0-1.52-1.52H190.2a1.53,1.53,0,1,0,0,3.05h6.18A1.52,1.52,0,0,0,197.9,203ZM221,153.56a1.53,1.53,0,0,0-1.53-1.53H203.28a1.53,1.53,0,0,0,0,3.05h16.23A1.53,1.53,0,0,0,221,153.56Zm0,7.06a1.53,1.53,0,0,0-1.53-1.52H203.28a1.53,1.53,0,0,0,0,3.05h16.23A1.53,1.53,0,0,0,221,160.62Zm0,7.07a1.54,1.54,0,0,0-1.53-1.53H203.28a1.53,1.53,0,0,0,0,3.05h16.23A1.53,1.53,0,0,0,221,167.69Zm0,7.07a1.53,1.53,0,0,0-1.53-1.53H203.28a1.53,1.53,0,0,0,0,3.05h16.23A1.53,1.53,0,0,0,221,174.76Zm0,7.06a1.53,1.53,0,0,0-1.53-1.52H203.28a1.53,1.53,0,0,0,0,3h16.23A1.53,1.53,0,0,0,221,181.82Zm19.43,7.07a1.52,1.52,0,0,0-1.53-1.52H222.71a1.52,1.52,0,1,0,0,3h16.23A1.52,1.52,0,0,0,240.47,188.89Zm0,7.07a1.52,1.52,0,0,0-1.53-1.53H222.71a1.53,1.53,0,0,0,0,3h16.23A1.52,1.52,0,0,0,240.47,196Zm0,7.06a1.52,1.52,0,0,0-1.53-1.52H222.71a1.53,1.53,0,0,0,0,3.05h16.23A1.52,1.52,0,0,0,240.47,203Zm-12.29-49.46a1.77,1.77,0,1,0-1.77,1.76A1.77,1.77,0,0,0,228.18,153.56Zm5.3,0a1.77,1.77,0,1,0-1.77,1.76A1.77,1.77,0,0,0,233.48,153.56Zm5.3,0a1.77,1.77,0,1,0-1.77,1.76A1.77,1.77,0,0,0,238.78,153.56Zm5.3,0a1.77,1.77,0,1,0-1.77,1.76A1.77,1.77,0,0,0,244.08,153.56Zm5.3,0a1.77,1.77,0,1,0-1.77,1.76A1.77,1.77,0,0,0,249.38,153.56Zm5.3,0a1.77,1.77,0,1,0-1.77,1.76A1.77,1.77,0,0,0,254.68,153.56Zm-26.5,14.13a1.77,1.77,0,1,0-1.77,1.77A1.77,1.77,0,0,0,228.18,167.69Zm5.3,0a1.77,1.77,0,1,0-1.77,1.77A1.77,1.77,0,0,0,233.48,167.69Zm5.3,0a1.77,1.77,0,1,0-1.77,1.77A1.77,1.77,0,0,0,238.78,167.69Zm5.3,0a1.77,1.77,0,1,0-1.77,1.77A1.77,1.77,0,0,0,244.08,167.69Zm5.3,0a1.77,1.77,0,1,0-1.77,1.77A1.77,1.77,0,0,0,249.38,167.69Zm5.3,0a1.77,1.77,0,1,0-1.77,1.77A1.77,1.77,0,0,0,254.68,167.69ZM246.29,188a1.77,1.77,0,1,0-1.77,1.76A1.77,1.77,0,0,0,246.29,188Zm5.3,0a1.77,1.77,0,1,0-1.77,1.76A1.77,1.77,0,0,0,251.59,188Zm5.3,0a1.77,1.77,0,1,0-1.77,1.76A1.77,1.77,0,0,0,256.89,188Zm5.3,0a1.77,1.77,0,1,0-1.77,1.76A1.77,1.77,0,0,0,262.19,188Zm5.3,0a1.77,1.77,0,1,0-1.77,1.76A1.77,1.77,0,0,0,267.49,188Zm5.3,0a1.77,1.77,0,1,0-1.77,1.76A1.77,1.77,0,0,0,272.79,188Zm-26.5,14.57a1.77,1.77,0,1,0-1.77,1.77A1.77,1.77,0,0,0,246.29,202.58Zm5.3,0a1.77,1.77,0,1,0-1.77,1.77A1.77,1.77,0,0,0,251.59,202.58Zm5.3,0a1.77,1.77,0,1,0-1.77,1.77A1.77,1.77,0,0,0,256.89,202.58Zm5.3,0a1.77,1.77,0,1,0-1.77,1.77A1.77,1.77,0,0,0,262.19,202.58Zm5.3,0a1.77,1.77,0,1,0-1.77,1.77A1.77,1.77,0,0,0,267.49,202.58Zm5.3,0a1.77,1.77,0,1,0-1.77,1.77A1.77,1.77,0,0,0,272.79,202.58Z" style="fill:#92E3A9"></path><path d="M101.45,132.43H95.26a1.53,1.53,0,0,1,0-3.05h6.19a1.53,1.53,0,0,1,0,3.05ZM103,138a1.52,1.52,0,0,0-1.52-1.52H95.26a1.53,1.53,0,0,0,0,3.05h6.19A1.52,1.52,0,0,0,103,138Zm23.13-7.06a1.52,1.52,0,0,0-1.52-1.53H108.35a1.53,1.53,0,1,0,0,3.05h16.23A1.52,1.52,0,0,0,126.1,130.91Zm0,7.06a1.52,1.52,0,0,0-1.52-1.52H108.35a1.53,1.53,0,1,0,0,3.05h16.23A1.52,1.52,0,0,0,126.1,138Zm7.15-7.06a1.77,1.77,0,1,0-1.77,1.76A1.77,1.77,0,0,0,133.25,130.91Zm5.3,0a1.77,1.77,0,1,0-1.77,1.76A1.77,1.77,0,0,0,138.55,130.91Zm5.3,0a1.77,1.77,0,1,0-1.77,1.76A1.77,1.77,0,0,0,143.85,130.91Zm5.3,0a1.77,1.77,0,1,0-1.77,1.76A1.77,1.77,0,0,0,149.15,130.91Zm5.3,0a1.77,1.77,0,1,0-1.77,1.76A1.77,1.77,0,0,0,154.45,130.91Zm5.3,0a1.77,1.77,0,1,0-1.77,1.76A1.77,1.77,0,0,0,159.75,130.91Z" style="fill:#92E3A9"></path><path d="M196.38,132.43H190.2a1.53,1.53,0,1,1,0-3.05h6.18a1.53,1.53,0,0,1,0,3.05ZM197.9,138a1.52,1.52,0,0,0-1.52-1.52H190.2a1.53,1.53,0,1,0,0,3.05h6.18A1.52,1.52,0,0,0,197.9,138ZM221,130.91a1.53,1.53,0,0,0-1.53-1.53H203.28a1.53,1.53,0,0,0,0,3.05h16.23A1.53,1.53,0,0,0,221,130.91Zm0,7.06a1.53,1.53,0,0,0-1.53-1.52H203.28a1.53,1.53,0,0,0,0,3.05h16.23A1.53,1.53,0,0,0,221,138Zm7.14-7.06a1.77,1.77,0,1,0-1.77,1.76A1.77,1.77,0,0,0,228.18,130.91Zm5.3,0a1.77,1.77,0,1,0-1.77,1.76A1.77,1.77,0,0,0,233.48,130.91Zm5.3,0a1.77,1.77,0,1,0-1.77,1.76A1.77,1.77,0,0,0,238.78,130.91Zm5.3,0a1.77,1.77,0,1,0-1.77,1.76A1.77,1.77,0,0,0,244.08,130.91Zm5.3,0a1.77,1.77,0,1,0-1.77,1.76A1.77,1.77,0,0,0,249.38,130.91Zm5.3,0a1.77,1.77,0,1,0-1.77,1.76A1.77,1.77,0,0,0,254.68,130.91Z" style="fill:#92E3A9"></path><path d="M196.38,213H190.2a1.53,1.53,0,1,1,0-3.05h6.18a1.53,1.53,0,0,1,0,3.05Zm1.52,5.55a1.52,1.52,0,0,0-1.52-1.53H190.2a1.53,1.53,0,1,0,0,3.05h6.18A1.52,1.52,0,0,0,197.9,218.54Zm0,7.06a1.52,1.52,0,0,0-1.52-1.52H190.2a1.53,1.53,0,1,0,0,3h6.18A1.52,1.52,0,0,0,197.9,225.6Zm0,7.07a1.53,1.53,0,0,0-1.52-1.53H190.2a1.53,1.53,0,1,0,0,3.05h6.18A1.52,1.52,0,0,0,197.9,232.67Zm0,7.06a1.52,1.52,0,0,0-1.52-1.52H190.2a1.53,1.53,0,1,0,0,3h6.18A1.52,1.52,0,0,0,197.9,239.73Zm0,7.07a1.52,1.52,0,0,0-1.52-1.52H190.2a1.53,1.53,0,1,0,0,3.05h6.18A1.52,1.52,0,0,0,197.9,246.8Zm0,7.07a1.53,1.53,0,0,0-1.52-1.53H190.2a1.53,1.53,0,1,0,0,3h6.18A1.52,1.52,0,0,0,197.9,253.87Zm0,7.07a1.52,1.52,0,0,0-1.52-1.53H190.2a1.53,1.53,0,1,0,0,3h6.18A1.52,1.52,0,0,0,197.9,260.94ZM221,211.47a1.54,1.54,0,0,0-1.53-1.53H203.28a1.53,1.53,0,0,0,0,3.05h16.23A1.53,1.53,0,0,0,221,211.47Zm0,7.07a1.53,1.53,0,0,0-1.53-1.53H203.28a1.53,1.53,0,0,0,0,3.05h16.23A1.53,1.53,0,0,0,221,218.54Zm0,7.06a1.53,1.53,0,0,0-1.53-1.52H203.28a1.53,1.53,0,0,0,0,3h16.23A1.53,1.53,0,0,0,221,225.6Zm0,7.07a1.54,1.54,0,0,0-1.53-1.53H203.28a1.53,1.53,0,0,0,0,3.05h16.23A1.53,1.53,0,0,0,221,232.67Zm0,7.06a1.53,1.53,0,0,0-1.53-1.52H203.28a1.53,1.53,0,0,0,0,3h16.23A1.53,1.53,0,0,0,221,239.73Zm19.43,7.07a1.52,1.52,0,0,0-1.53-1.52H222.71a1.53,1.53,0,0,0,0,3.05h16.23A1.52,1.52,0,0,0,240.47,246.8Zm0,7.07a1.53,1.53,0,0,0-1.53-1.53H222.71a1.53,1.53,0,0,0,0,3h16.23A1.52,1.52,0,0,0,240.47,253.87Zm0,7.07a1.52,1.52,0,0,0-1.53-1.53H222.71a1.53,1.53,0,0,0,0,3h16.23A1.52,1.52,0,0,0,240.47,260.94Zm-12.29-49.47a1.77,1.77,0,1,0-1.77,1.77A1.77,1.77,0,0,0,228.18,211.47Zm5.3,0a1.77,1.77,0,1,0-1.77,1.77A1.77,1.77,0,0,0,233.48,211.47Zm5.3,0a1.77,1.77,0,1,0-1.77,1.77A1.77,1.77,0,0,0,238.78,211.47Zm5.3,0a1.77,1.77,0,1,0-1.77,1.77A1.77,1.77,0,0,0,244.08,211.47Zm5.3,0a1.77,1.77,0,1,0-1.77,1.77A1.77,1.77,0,0,0,249.38,211.47Zm5.3,0a1.77,1.77,0,1,0-1.77,1.77A1.77,1.77,0,0,0,254.68,211.47Zm-26.5,14.13a1.77,1.77,0,1,0-1.77,1.77A1.76,1.76,0,0,0,228.18,225.6Zm5.3,0a1.77,1.77,0,1,0-1.77,1.77A1.76,1.76,0,0,0,233.48,225.6Zm5.3,0a1.77,1.77,0,1,0-1.77,1.77A1.76,1.76,0,0,0,238.78,225.6Zm5.3,0a1.77,1.77,0,1,0-1.77,1.77A1.76,1.76,0,0,0,244.08,225.6Zm5.3,0a1.77,1.77,0,1,0-1.77,1.77A1.76,1.76,0,0,0,249.38,225.6Zm5.3,0a1.77,1.77,0,1,0-1.77,1.77A1.76,1.76,0,0,0,254.68,225.6Zm-8.39,20.32a1.77,1.77,0,1,0-1.77,1.77A1.77,1.77,0,0,0,246.29,245.92Zm5.3,0a1.77,1.77,0,1,0-1.77,1.77A1.77,1.77,0,0,0,251.59,245.92Zm5.3,0a1.77,1.77,0,1,0-1.77,1.77A1.77,1.77,0,0,0,256.89,245.92Zm5.3,0a1.77,1.77,0,1,0-1.77,1.77A1.77,1.77,0,0,0,262.19,245.92Zm5.3,0a1.77,1.77,0,1,0-1.77,1.77A1.77,1.77,0,0,0,267.49,245.92Zm5.3,0a1.77,1.77,0,1,0-1.77,1.77A1.77,1.77,0,0,0,272.79,245.92Zm-26.5,14.57a1.77,1.77,0,1,0-1.77,1.77A1.76,1.76,0,0,0,246.29,260.49Zm5.3,0a1.77,1.77,0,1,0-1.77,1.77A1.76,1.76,0,0,0,251.59,260.49Zm5.3,0a1.77,1.77,0,1,0-1.77,1.77A1.76,1.76,0,0,0,256.89,260.49Zm5.3,0a1.77,1.77,0,1,0-1.77,1.77A1.76,1.76,0,0,0,262.19,260.49Zm5.3,0a1.77,1.77,0,1,0-1.77,1.77A1.76,1.76,0,0,0,267.49,260.49Zm5.3,0a1.77,1.77,0,1,0-1.77,1.77A1.76,1.76,0,0,0,272.79,260.49Z" style="fill:#92E3A9"></path><path d="M101.45,327.75H95.26a1.53,1.53,0,0,1,0-3.05h6.19a1.53,1.53,0,0,1,0,3.05Zm1.52,5.54a1.53,1.53,0,0,0-1.52-1.53H95.26a1.53,1.53,0,0,0,0,3.05h6.19A1.52,1.52,0,0,0,103,333.29Zm0,7.07a1.52,1.52,0,0,0-1.52-1.53H95.26a1.53,1.53,0,0,0,0,3.05h6.19A1.52,1.52,0,0,0,103,340.36Zm0,7.06a1.52,1.52,0,0,0-1.52-1.52H95.26a1.53,1.53,0,0,0,0,3.05h6.19A1.52,1.52,0,0,0,103,347.42Zm0,7.07a1.53,1.53,0,0,0-1.52-1.53H95.26a1.53,1.53,0,0,0,0,3.05h6.19A1.52,1.52,0,0,0,103,354.49Zm0,7.07a1.52,1.52,0,0,0-1.52-1.53H95.26a1.53,1.53,0,0,0,0,3.05h6.19A1.52,1.52,0,0,0,103,361.56Zm0,7.06a1.52,1.52,0,0,0-1.52-1.52H95.26a1.53,1.53,0,0,0,0,3h6.19A1.52,1.52,0,0,0,103,368.62Zm0,7.07a1.53,1.53,0,0,0-1.52-1.53H95.26a1.53,1.53,0,0,0,0,3h6.19A1.52,1.52,0,0,0,103,375.69Zm23.13-49.47a1.52,1.52,0,0,0-1.52-1.52H108.35a1.53,1.53,0,1,0,0,3.05h16.23A1.52,1.52,0,0,0,126.1,326.22Zm0,7.07a1.53,1.53,0,0,0-1.52-1.53H108.35a1.53,1.53,0,1,0,0,3.05h16.23A1.52,1.52,0,0,0,126.1,333.29Zm0,7.07a1.52,1.52,0,0,0-1.52-1.53H108.35a1.53,1.53,0,1,0,0,3.05h16.23A1.52,1.52,0,0,0,126.1,340.36Zm0,7.06a1.52,1.52,0,0,0-1.52-1.52H108.35a1.53,1.53,0,1,0,0,3.05h16.23A1.52,1.52,0,0,0,126.1,347.42Zm0,7.07a1.53,1.53,0,0,0-1.52-1.53H108.35a1.53,1.53,0,1,0,0,3.05h16.23A1.52,1.52,0,0,0,126.1,354.49Zm19.44,7.07A1.52,1.52,0,0,0,144,360H127.78a1.53,1.53,0,0,0,0,3.05H144A1.52,1.52,0,0,0,145.54,361.56Zm0,7.06A1.52,1.52,0,0,0,144,367.1H127.78a1.53,1.53,0,0,0,0,3H144A1.52,1.52,0,0,0,145.54,368.62Zm0,7.07a1.53,1.53,0,0,0-1.53-1.53H127.78a1.53,1.53,0,0,0,0,3H144A1.52,1.52,0,0,0,145.54,375.69Zm-12.29-49.47a1.77,1.77,0,1,0-1.77,1.77A1.76,1.76,0,0,0,133.25,326.22Zm5.3,0a1.77,1.77,0,1,0-1.77,1.77A1.76,1.76,0,0,0,138.55,326.22Zm5.3,0a1.77,1.77,0,1,0-1.77,1.77A1.76,1.76,0,0,0,143.85,326.22Zm5.3,0a1.77,1.77,0,1,0-1.77,1.77A1.76,1.76,0,0,0,149.15,326.22Zm5.3,0a1.77,1.77,0,1,0-1.77,1.77A1.76,1.76,0,0,0,154.45,326.22Zm5.3,0A1.77,1.77,0,1,0,158,328,1.76,1.76,0,0,0,159.75,326.22Zm-26.5,14.14a1.77,1.77,0,1,0-1.77,1.76A1.77,1.77,0,0,0,133.25,340.36Zm5.3,0a1.77,1.77,0,1,0-1.77,1.76A1.77,1.77,0,0,0,138.55,340.36Zm5.3,0a1.77,1.77,0,1,0-1.77,1.76A1.77,1.77,0,0,0,143.85,340.36Zm5.3,0a1.77,1.77,0,1,0-1.77,1.76A1.77,1.77,0,0,0,149.15,340.36Zm5.3,0a1.77,1.77,0,1,0-1.77,1.76A1.77,1.77,0,0,0,154.45,340.36Zm5.3,0a1.77,1.77,0,1,0-1.77,1.76A1.77,1.77,0,0,0,159.75,340.36Zm-8.39,20.31a1.77,1.77,0,1,0-1.77,1.77A1.77,1.77,0,0,0,151.36,360.67Zm5.3,0a1.77,1.77,0,1,0-1.77,1.77A1.77,1.77,0,0,0,156.66,360.67Zm5.3,0a1.77,1.77,0,1,0-1.77,1.77A1.77,1.77,0,0,0,162,360.67Zm5.3,0a1.77,1.77,0,1,0-1.77,1.77A1.77,1.77,0,0,0,167.26,360.67Zm5.3,0a1.77,1.77,0,1,0-1.77,1.77A1.77,1.77,0,0,0,172.56,360.67Zm5.3,0a1.77,1.77,0,1,0-1.77,1.77A1.77,1.77,0,0,0,177.86,360.67Zm-26.5,14.58a1.77,1.77,0,1,0-1.77,1.76A1.77,1.77,0,0,0,151.36,375.25Zm5.3,0a1.77,1.77,0,1,0-1.77,1.76A1.77,1.77,0,0,0,156.66,375.25Zm5.3,0a1.77,1.77,0,1,0-1.77,1.76A1.77,1.77,0,0,0,162,375.25Zm5.3,0a1.77,1.77,0,1,0-1.77,1.76A1.77,1.77,0,0,0,167.26,375.25Zm5.3,0a1.77,1.77,0,1,0-1.77,1.76A1.77,1.77,0,0,0,172.56,375.25Zm5.3,0a1.77,1.77,0,1,0-1.77,1.76A1.77,1.77,0,0,0,177.86,375.25Z" style="fill:#92E3A9"></path><path d="M101.45,384.3H95.26a1.53,1.53,0,0,1,0-3.05h6.19a1.53,1.53,0,0,1,0,3.05Zm1.52,5.54a1.52,1.52,0,0,0-1.52-1.53H95.26a1.53,1.53,0,0,0,0,3.05h6.19A1.52,1.52,0,0,0,103,389.84Zm0,7.06a1.52,1.52,0,0,0-1.52-1.52H95.26a1.53,1.53,0,0,0,0,3.05h6.19A1.52,1.52,0,0,0,103,396.9Zm0,7.07a1.52,1.52,0,0,0-1.52-1.52H95.26a1.53,1.53,0,0,0,0,3.05h6.19A1.53,1.53,0,0,0,103,404Zm0,7.07a1.52,1.52,0,0,0-1.52-1.53H95.26a1.53,1.53,0,0,0,0,3.05h6.19A1.52,1.52,0,0,0,103,411Zm0,7.06a1.52,1.52,0,0,0-1.52-1.52H95.26a1.53,1.53,0,0,0,0,3.05h6.19A1.52,1.52,0,0,0,103,418.1Zm23.13-35.33a1.52,1.52,0,0,0-1.52-1.52H108.35a1.53,1.53,0,1,0,0,3.05h16.23A1.53,1.53,0,0,0,126.1,382.77Zm0,7.07a1.52,1.52,0,0,0-1.52-1.53H108.35a1.53,1.53,0,1,0,0,3.05h16.23A1.52,1.52,0,0,0,126.1,389.84Zm0,7.06a1.52,1.52,0,0,0-1.52-1.52H108.35a1.53,1.53,0,1,0,0,3.05h16.23A1.52,1.52,0,0,0,126.1,396.9Zm0,7.07a1.52,1.52,0,0,0-1.52-1.52H108.35a1.53,1.53,0,1,0,0,3.05h16.23A1.53,1.53,0,0,0,126.1,404Zm0,7.07a1.52,1.52,0,0,0-1.52-1.53H108.35a1.53,1.53,0,1,0,0,3.05h16.23A1.52,1.52,0,0,0,126.1,411Zm19.44,7.06a1.52,1.52,0,0,0-1.53-1.52H127.78a1.53,1.53,0,0,0,0,3.05H144A1.52,1.52,0,0,0,145.54,418.1Zm-12.29-35.33a1.77,1.77,0,1,0-1.77,1.77A1.77,1.77,0,0,0,133.25,382.77Zm5.3,0a1.77,1.77,0,1,0-1.77,1.77A1.77,1.77,0,0,0,138.55,382.77Zm5.3,0a1.77,1.77,0,1,0-1.77,1.77A1.77,1.77,0,0,0,143.85,382.77Zm5.3,0a1.77,1.77,0,1,0-1.77,1.77A1.77,1.77,0,0,0,149.15,382.77Zm5.3,0a1.77,1.77,0,1,0-1.77,1.77A1.77,1.77,0,0,0,154.45,382.77Zm5.3,0a1.77,1.77,0,1,0-1.77,1.77A1.77,1.77,0,0,0,159.75,382.77Zm-26.5,14.13a1.77,1.77,0,1,0-1.77,1.77A1.76,1.76,0,0,0,133.25,396.9Zm5.3,0a1.77,1.77,0,1,0-1.77,1.77A1.76,1.76,0,0,0,138.55,396.9Zm5.3,0a1.77,1.77,0,1,0-1.77,1.77A1.76,1.76,0,0,0,143.85,396.9Zm5.3,0a1.77,1.77,0,1,0-1.77,1.77A1.76,1.76,0,0,0,149.15,396.9Zm5.3,0a1.77,1.77,0,1,0-1.77,1.77A1.76,1.76,0,0,0,154.45,396.9Zm5.3,0a1.77,1.77,0,1,0-1.77,1.77A1.76,1.76,0,0,0,159.75,396.9Zm-8.39,20.32a1.77,1.77,0,1,0-1.77,1.77A1.77,1.77,0,0,0,151.36,417.22Zm5.3,0a1.77,1.77,0,1,0-1.77,1.77A1.77,1.77,0,0,0,156.66,417.22Zm5.3,0a1.77,1.77,0,1,0-1.77,1.77A1.77,1.77,0,0,0,162,417.22Zm5.3,0a1.77,1.77,0,1,0-1.77,1.77A1.77,1.77,0,0,0,167.26,417.22Zm5.3,0a1.77,1.77,0,1,0-1.77,1.77A1.77,1.77,0,0,0,172.56,417.22Zm5.3,0a1.77,1.77,0,1,0-1.77,1.77A1.77,1.77,0,0,0,177.86,417.22Z" style="fill:#92E3A9"></path><path d="M196.38,327.75H190.2a1.53,1.53,0,1,1,0-3.05h6.18a1.53,1.53,0,0,1,0,3.05Zm1.52,5.54a1.53,1.53,0,0,0-1.52-1.53H190.2a1.53,1.53,0,1,0,0,3.05h6.18A1.52,1.52,0,0,0,197.9,333.29Zm0,7.07a1.52,1.52,0,0,0-1.52-1.53H190.2a1.53,1.53,0,1,0,0,3.05h6.18A1.52,1.52,0,0,0,197.9,340.36Zm0,7.06a1.52,1.52,0,0,0-1.52-1.52H190.2a1.53,1.53,0,1,0,0,3.05h6.18A1.52,1.52,0,0,0,197.9,347.42Zm0,7.07a1.53,1.53,0,0,0-1.52-1.53H190.2a1.53,1.53,0,1,0,0,3.05h6.18A1.52,1.52,0,0,0,197.9,354.49Zm0,7.07a1.52,1.52,0,0,0-1.52-1.53H190.2a1.53,1.53,0,1,0,0,3.05h6.18A1.52,1.52,0,0,0,197.9,361.56Zm0,7.06a1.52,1.52,0,0,0-1.52-1.52H190.2a1.53,1.53,0,1,0,0,3h6.18A1.52,1.52,0,0,0,197.9,368.62Zm0,7.07a1.53,1.53,0,0,0-1.52-1.53H190.2a1.53,1.53,0,1,0,0,3h6.18A1.52,1.52,0,0,0,197.9,375.69ZM221,326.22a1.53,1.53,0,0,0-1.53-1.52H203.28a1.53,1.53,0,0,0,0,3.05h16.23A1.53,1.53,0,0,0,221,326.22Zm0,7.07a1.54,1.54,0,0,0-1.53-1.53H203.28a1.53,1.53,0,0,0,0,3.05h16.23A1.53,1.53,0,0,0,221,333.29Zm0,7.07a1.53,1.53,0,0,0-1.53-1.53H203.28a1.53,1.53,0,0,0,0,3.05h16.23A1.53,1.53,0,0,0,221,340.36Zm0,7.06a1.53,1.53,0,0,0-1.53-1.52H203.28a1.53,1.53,0,0,0,0,3.05h16.23A1.53,1.53,0,0,0,221,347.42Zm0,7.07a1.54,1.54,0,0,0-1.53-1.53H203.28a1.53,1.53,0,0,0,0,3.05h16.23A1.53,1.53,0,0,0,221,354.49Zm19.43,7.07a1.52,1.52,0,0,0-1.53-1.53H222.71a1.53,1.53,0,0,0,0,3.05h16.23A1.52,1.52,0,0,0,240.47,361.56Zm0,7.06a1.52,1.52,0,0,0-1.53-1.52H222.71a1.53,1.53,0,0,0,0,3h16.23A1.52,1.52,0,0,0,240.47,368.62Zm0,7.07a1.53,1.53,0,0,0-1.53-1.53H222.71a1.53,1.53,0,0,0,0,3h16.23A1.52,1.52,0,0,0,240.47,375.69Zm-12.29-49.47a1.77,1.77,0,1,0-1.77,1.77A1.76,1.76,0,0,0,228.18,326.22Zm5.3,0a1.77,1.77,0,1,0-1.77,1.77A1.76,1.76,0,0,0,233.48,326.22Zm5.3,0A1.77,1.77,0,1,0,237,328,1.76,1.76,0,0,0,238.78,326.22Zm5.3,0a1.77,1.77,0,1,0-1.77,1.77A1.76,1.76,0,0,0,244.08,326.22Zm5.3,0a1.77,1.77,0,1,0-1.77,1.77A1.76,1.76,0,0,0,249.38,326.22Zm5.3,0a1.77,1.77,0,1,0-1.77,1.77A1.76,1.76,0,0,0,254.68,326.22Zm-26.5,14.14a1.77,1.77,0,1,0-1.77,1.76A1.77,1.77,0,0,0,228.18,340.36Zm5.3,0a1.77,1.77,0,1,0-1.77,1.76A1.77,1.77,0,0,0,233.48,340.36Zm5.3,0a1.77,1.77,0,1,0-1.77,1.76A1.77,1.77,0,0,0,238.78,340.36Zm5.3,0a1.77,1.77,0,1,0-1.77,1.76A1.77,1.77,0,0,0,244.08,340.36Zm5.3,0a1.77,1.77,0,1,0-1.77,1.76A1.77,1.77,0,0,0,249.38,340.36Zm5.3,0a1.77,1.77,0,1,0-1.77,1.76A1.77,1.77,0,0,0,254.68,340.36Zm-8.39,20.31a1.77,1.77,0,1,0-1.77,1.77A1.76,1.76,0,0,0,246.29,360.67Zm5.3,0a1.77,1.77,0,1,0-1.77,1.77A1.76,1.76,0,0,0,251.59,360.67Zm5.3,0a1.77,1.77,0,1,0-1.77,1.77A1.76,1.76,0,0,0,256.89,360.67Zm5.3,0a1.77,1.77,0,1,0-1.77,1.77A1.76,1.76,0,0,0,262.19,360.67Zm5.3,0a1.77,1.77,0,1,0-1.77,1.77A1.76,1.76,0,0,0,267.49,360.67Zm5.3,0a1.77,1.77,0,1,0-1.77,1.77A1.76,1.76,0,0,0,272.79,360.67Zm-26.5,14.58a1.77,1.77,0,1,0-1.77,1.76A1.77,1.77,0,0,0,246.29,375.25Zm5.3,0a1.77,1.77,0,1,0-1.77,1.76A1.77,1.77,0,0,0,251.59,375.25Zm5.3,0a1.77,1.77,0,1,0-1.77,1.76A1.77,1.77,0,0,0,256.89,375.25Zm5.3,0a1.77,1.77,0,1,0-1.77,1.76A1.77,1.77,0,0,0,262.19,375.25Zm5.3,0a1.77,1.77,0,1,0-1.77,1.76A1.77,1.77,0,0,0,267.49,375.25Zm5.3,0A1.77,1.77,0,1,0,271,377,1.77,1.77,0,0,0,272.79,375.25Z" style="fill:#92E3A9"></path><path d="M196.38,385.66H190.2a1.53,1.53,0,1,1,0-3.05h6.18a1.53,1.53,0,0,1,0,3.05Zm1.52,5.54a1.52,1.52,0,0,0-1.52-1.52H190.2a1.53,1.53,0,1,0,0,3.05h6.18A1.52,1.52,0,0,0,197.9,391.2Zm0,7.07a1.53,1.53,0,0,0-1.52-1.53H190.2a1.53,1.53,0,1,0,0,3.05h6.18A1.52,1.52,0,0,0,197.9,398.27Zm0,7.07a1.52,1.52,0,0,0-1.52-1.53H190.2a1.53,1.53,0,1,0,0,3.05h6.18A1.52,1.52,0,0,0,197.9,405.34Zm0,7.06a1.52,1.52,0,0,0-1.52-1.52H190.2a1.53,1.53,0,1,0,0,3.05h6.18A1.53,1.53,0,0,0,197.9,412.4Zm0,7.07a1.53,1.53,0,0,0-1.52-1.53H190.2a1.53,1.53,0,1,0,0,3.05h6.18A1.52,1.52,0,0,0,197.9,419.47ZM221,384.14a1.53,1.53,0,0,0-1.53-1.53H203.28a1.53,1.53,0,0,0,0,3.05h16.23A1.53,1.53,0,0,0,221,384.14Zm0,7.06a1.53,1.53,0,0,0-1.53-1.52H203.28a1.53,1.53,0,0,0,0,3.05h16.23A1.53,1.53,0,0,0,221,391.2Zm0,7.07a1.54,1.54,0,0,0-1.53-1.53H203.28a1.53,1.53,0,0,0,0,3.05h16.23A1.53,1.53,0,0,0,221,398.27Zm0,7.07a1.53,1.53,0,0,0-1.53-1.53H203.28a1.53,1.53,0,0,0,0,3.05h16.23A1.53,1.53,0,0,0,221,405.34Zm0,7.06a1.53,1.53,0,0,0-1.53-1.52H203.28a1.53,1.53,0,0,0,0,3.05h16.23A1.54,1.54,0,0,0,221,412.4Zm19.43,7.07a1.53,1.53,0,0,0-1.53-1.53H222.71a1.53,1.53,0,0,0,0,3.05h16.23A1.52,1.52,0,0,0,240.47,419.47Zm-12.29-35.33a1.77,1.77,0,1,0-1.77,1.76A1.77,1.77,0,0,0,228.18,384.14Zm5.3,0a1.77,1.77,0,1,0-1.77,1.76A1.77,1.77,0,0,0,233.48,384.14Zm5.3,0A1.77,1.77,0,1,0,237,385.9,1.77,1.77,0,0,0,238.78,384.14Zm5.3,0a1.77,1.77,0,1,0-1.77,1.76A1.77,1.77,0,0,0,244.08,384.14Zm5.3,0a1.77,1.77,0,1,0-1.77,1.76A1.77,1.77,0,0,0,249.38,384.14Zm5.3,0a1.77,1.77,0,1,0-1.77,1.76A1.77,1.77,0,0,0,254.68,384.14Zm-26.5,14.13a1.77,1.77,0,1,0-1.77,1.77A1.77,1.77,0,0,0,228.18,398.27Zm5.3,0a1.77,1.77,0,1,0-1.77,1.77A1.77,1.77,0,0,0,233.48,398.27Zm5.3,0A1.77,1.77,0,1,0,237,400,1.77,1.77,0,0,0,238.78,398.27Zm5.3,0a1.77,1.77,0,1,0-1.77,1.77A1.77,1.77,0,0,0,244.08,398.27Zm5.3,0a1.77,1.77,0,1,0-1.77,1.77A1.77,1.77,0,0,0,249.38,398.27Zm5.3,0a1.77,1.77,0,1,0-1.77,1.77A1.77,1.77,0,0,0,254.68,398.27Zm-8.39,20.32a1.77,1.77,0,1,0-1.77,1.76A1.77,1.77,0,0,0,246.29,418.59Zm5.3,0a1.77,1.77,0,1,0-1.77,1.76A1.77,1.77,0,0,0,251.59,418.59Zm5.3,0a1.77,1.77,0,1,0-1.77,1.76A1.77,1.77,0,0,0,256.89,418.59Zm5.3,0a1.77,1.77,0,1,0-1.77,1.76A1.77,1.77,0,0,0,262.19,418.59Zm5.3,0a1.77,1.77,0,1,0-1.77,1.76A1.77,1.77,0,0,0,267.49,418.59Zm5.3,0a1.77,1.77,0,1,0-1.77,1.76A1.77,1.77,0,0,0,272.79,418.59Z" style="fill:#92E3A9"></path><path d="M292.11,155.08h-6.18a1.53,1.53,0,0,1,0-3.05h6.18a1.53,1.53,0,1,1,0,3.05Zm1.53,5.54a1.52,1.52,0,0,0-1.53-1.52h-6.18a1.53,1.53,0,0,0,0,3.05h6.18A1.52,1.52,0,0,0,293.64,160.62Zm0,7.07a1.53,1.53,0,0,0-1.53-1.53h-6.18a1.53,1.53,0,0,0,0,3.05h6.18A1.52,1.52,0,0,0,293.64,167.69Zm0,7.07a1.52,1.52,0,0,0-1.53-1.53h-6.18a1.53,1.53,0,0,0,0,3.05h6.18A1.52,1.52,0,0,0,293.64,174.76Zm0,7.06a1.52,1.52,0,0,0-1.53-1.52h-6.18a1.53,1.53,0,0,0,0,3h6.18A1.52,1.52,0,0,0,293.64,181.82Zm0,7.07a1.52,1.52,0,0,0-1.53-1.52h-6.18a1.52,1.52,0,1,0,0,3h6.18A1.52,1.52,0,0,0,293.64,188.89Zm0,7.07a1.52,1.52,0,0,0-1.53-1.53h-6.18a1.53,1.53,0,0,0,0,3h6.18A1.52,1.52,0,0,0,293.64,196Zm0,7.06a1.52,1.52,0,0,0-1.53-1.52h-6.18a1.53,1.53,0,0,0,0,3.05h6.18A1.52,1.52,0,0,0,293.64,203Zm23.13-49.46a1.52,1.52,0,0,0-1.52-1.53H299a1.53,1.53,0,0,0,0,3.05h16.24A1.52,1.52,0,0,0,316.77,153.56Zm0,7.06a1.52,1.52,0,0,0-1.52-1.52H299a1.53,1.53,0,0,0,0,3.05h16.24A1.52,1.52,0,0,0,316.77,160.62Zm0,7.07a1.53,1.53,0,0,0-1.52-1.53H299a1.53,1.53,0,0,0,0,3.05h16.24A1.52,1.52,0,0,0,316.77,167.69Zm0,7.07a1.52,1.52,0,0,0-1.52-1.53H299a1.53,1.53,0,0,0,0,3.05h16.24A1.52,1.52,0,0,0,316.77,174.76Zm0,7.06a1.52,1.52,0,0,0-1.52-1.52H299a1.53,1.53,0,0,0,0,3h16.24A1.52,1.52,0,0,0,316.77,181.82Zm19.43,7.07a1.52,1.52,0,0,0-1.52-1.52H318.45a1.52,1.52,0,1,0,0,3h16.23A1.52,1.52,0,0,0,336.2,188.89Zm0,7.07a1.52,1.52,0,0,0-1.52-1.53H318.45a1.53,1.53,0,1,0,0,3h16.23A1.52,1.52,0,0,0,336.2,196Zm0,7.06a1.52,1.52,0,0,0-1.52-1.52H318.45a1.53,1.53,0,1,0,0,3.05h16.23A1.52,1.52,0,0,0,336.2,203Zm-12.29-49.46a1.77,1.77,0,1,0-1.76,1.76A1.76,1.76,0,0,0,323.91,153.56Zm5.3,0a1.77,1.77,0,1,0-1.76,1.76A1.76,1.76,0,0,0,329.21,153.56Zm5.3,0a1.77,1.77,0,1,0-1.76,1.76A1.76,1.76,0,0,0,334.51,153.56Zm5.3,0a1.77,1.77,0,1,0-1.76,1.76A1.76,1.76,0,0,0,339.81,153.56Zm5.3,0a1.77,1.77,0,1,0-1.76,1.76A1.76,1.76,0,0,0,345.11,153.56Zm5.3,0a1.77,1.77,0,1,0-1.76,1.76A1.76,1.76,0,0,0,350.41,153.56Zm-26.5,14.13a1.77,1.77,0,1,0-1.76,1.77A1.76,1.76,0,0,0,323.91,167.69Zm5.3,0a1.77,1.77,0,1,0-1.76,1.77A1.76,1.76,0,0,0,329.21,167.69Zm5.3,0a1.77,1.77,0,1,0-1.76,1.77A1.76,1.76,0,0,0,334.51,167.69Zm5.3,0a1.77,1.77,0,1,0-1.76,1.77A1.76,1.76,0,0,0,339.81,167.69Zm5.3,0a1.77,1.77,0,1,0-1.76,1.77A1.76,1.76,0,0,0,345.11,167.69Zm5.3,0a1.77,1.77,0,1,0-1.76,1.77A1.76,1.76,0,0,0,350.41,167.69ZM342,188a1.77,1.77,0,1,0-1.76,1.76A1.76,1.76,0,0,0,342,188Zm5.3,0a1.77,1.77,0,1,0-1.76,1.76A1.76,1.76,0,0,0,347.32,188Zm5.3,0a1.77,1.77,0,1,0-1.76,1.76A1.76,1.76,0,0,0,352.62,188Zm5.3,0a1.77,1.77,0,1,0-1.76,1.76A1.76,1.76,0,0,0,357.92,188Zm5.3,0a1.77,1.77,0,1,0-1.76,1.76A1.76,1.76,0,0,0,363.22,188Zm5.3,0a1.77,1.77,0,1,0-1.76,1.76A1.76,1.76,0,0,0,368.52,188ZM342,202.58a1.77,1.77,0,1,0-1.76,1.77A1.77,1.77,0,0,0,342,202.58Zm5.3,0a1.77,1.77,0,1,0-1.76,1.77A1.77,1.77,0,0,0,347.32,202.58Zm5.3,0a1.77,1.77,0,1,0-1.76,1.77A1.77,1.77,0,0,0,352.62,202.58Zm5.3,0a1.77,1.77,0,1,0-1.76,1.77A1.77,1.77,0,0,0,357.92,202.58Zm5.3,0a1.77,1.77,0,1,0-1.76,1.77A1.77,1.77,0,0,0,363.22,202.58Zm5.3,0a1.77,1.77,0,1,0-1.76,1.77A1.77,1.77,0,0,0,368.52,202.58Z" style="fill:#92E3A9"></path><path d="M292.11,211.63h-6.18a1.53,1.53,0,0,1,0-3h6.18a1.53,1.53,0,1,1,0,3Zm1.53,5.54a1.52,1.52,0,0,0-1.53-1.52h-6.18a1.53,1.53,0,0,0,0,3h6.18A1.53,1.53,0,0,0,293.64,217.17Zm0,7.07a1.52,1.52,0,0,0-1.53-1.53h-6.18a1.53,1.53,0,0,0,0,3h6.18A1.52,1.52,0,0,0,293.64,224.24Zm0,7.06a1.52,1.52,0,0,0-1.53-1.52h-6.18a1.53,1.53,0,0,0,0,3.05h6.18A1.52,1.52,0,0,0,293.64,231.3Zm0,7.07a1.53,1.53,0,0,0-1.53-1.53h-6.18a1.53,1.53,0,0,0,0,3h6.18A1.52,1.52,0,0,0,293.64,238.37Zm0,7.07a1.52,1.52,0,0,0-1.53-1.53h-6.18a1.53,1.53,0,0,0,0,3.05h6.18A1.52,1.52,0,0,0,293.64,245.44Zm0,7.06a1.52,1.52,0,0,0-1.53-1.52h-6.18a1.53,1.53,0,0,0,0,3.05h6.18A1.52,1.52,0,0,0,293.64,252.5Zm0,7.07a1.52,1.52,0,0,0-1.53-1.52h-6.18a1.53,1.53,0,0,0,0,3.05h6.18A1.53,1.53,0,0,0,293.64,259.57Zm23.13-49.47a1.52,1.52,0,0,0-1.52-1.52H299a1.53,1.53,0,0,0,0,3h16.24A1.52,1.52,0,0,0,316.77,210.1Zm0,7.07a1.52,1.52,0,0,0-1.52-1.52H299a1.53,1.53,0,0,0,0,3h16.24A1.53,1.53,0,0,0,316.77,217.17Zm0,7.07a1.52,1.52,0,0,0-1.52-1.53H299a1.53,1.53,0,0,0,0,3h16.24A1.52,1.52,0,0,0,316.77,224.24Zm0,7.06a1.52,1.52,0,0,0-1.52-1.52H299a1.53,1.53,0,0,0,0,3.05h16.24A1.52,1.52,0,0,0,316.77,231.3Zm0,7.07a1.53,1.53,0,0,0-1.52-1.53H299a1.53,1.53,0,0,0,0,3h16.24A1.52,1.52,0,0,0,316.77,238.37Zm19.43,7.07a1.52,1.52,0,0,0-1.52-1.53H318.45a1.53,1.53,0,1,0,0,3.05h16.23A1.52,1.52,0,0,0,336.2,245.44Zm0,7.06a1.52,1.52,0,0,0-1.52-1.52H318.45a1.53,1.53,0,1,0,0,3.05h16.23A1.52,1.52,0,0,0,336.2,252.5Zm0,7.07a1.52,1.52,0,0,0-1.52-1.52H318.45a1.53,1.53,0,1,0,0,3.05h16.23A1.53,1.53,0,0,0,336.2,259.57ZM323.91,210.1a1.77,1.77,0,1,0-1.76,1.77A1.76,1.76,0,0,0,323.91,210.1Zm5.3,0a1.77,1.77,0,1,0-1.76,1.77A1.76,1.76,0,0,0,329.21,210.1Zm5.3,0a1.77,1.77,0,1,0-1.76,1.77A1.76,1.76,0,0,0,334.51,210.1Zm5.3,0a1.77,1.77,0,1,0-1.76,1.77A1.76,1.76,0,0,0,339.81,210.1Zm5.3,0a1.77,1.77,0,1,0-1.76,1.77A1.76,1.76,0,0,0,345.11,210.1Zm5.3,0a1.77,1.77,0,1,0-1.76,1.77A1.76,1.76,0,0,0,350.41,210.1Zm-26.5,14.14a1.77,1.77,0,1,0-1.76,1.76A1.76,1.76,0,0,0,323.91,224.24Zm5.3,0a1.77,1.77,0,1,0-1.76,1.76A1.76,1.76,0,0,0,329.21,224.24Zm5.3,0a1.77,1.77,0,1,0-1.76,1.76A1.76,1.76,0,0,0,334.51,224.24Zm5.3,0a1.77,1.77,0,1,0-1.76,1.76A1.76,1.76,0,0,0,339.81,224.24Zm5.3,0a1.77,1.77,0,1,0-1.76,1.76A1.76,1.76,0,0,0,345.11,224.24Zm5.3,0a1.77,1.77,0,1,0-1.76,1.76A1.76,1.76,0,0,0,350.41,224.24ZM342,244.55a1.77,1.77,0,1,0-1.76,1.77A1.76,1.76,0,0,0,342,244.55Zm5.3,0a1.77,1.77,0,1,0-1.76,1.77A1.76,1.76,0,0,0,347.32,244.55Zm5.3,0a1.77,1.77,0,1,0-1.76,1.77A1.76,1.76,0,0,0,352.62,244.55Zm5.3,0a1.77,1.77,0,1,0-1.76,1.77A1.76,1.76,0,0,0,357.92,244.55Zm5.3,0a1.77,1.77,0,1,0-1.76,1.77A1.76,1.76,0,0,0,363.22,244.55Zm5.3,0a1.77,1.77,0,1,0-1.76,1.77A1.76,1.76,0,0,0,368.52,244.55ZM342,259.13a1.77,1.77,0,1,0-1.76,1.77A1.76,1.76,0,0,0,342,259.13Zm5.3,0a1.77,1.77,0,1,0-1.76,1.77A1.76,1.76,0,0,0,347.32,259.13Zm5.3,0a1.77,1.77,0,1,0-1.76,1.77A1.76,1.76,0,0,0,352.62,259.13Zm5.3,0a1.77,1.77,0,1,0-1.76,1.77A1.76,1.76,0,0,0,357.92,259.13Zm5.3,0a1.77,1.77,0,1,0-1.76,1.77A1.76,1.76,0,0,0,363.22,259.13Zm5.3,0a1.77,1.77,0,1,0-1.76,1.77A1.76,1.76,0,0,0,368.52,259.13Z" style="fill:#92E3A9"></path><path d="M292.11,269.54h-6.18a1.53,1.53,0,0,1,0-3.05h6.18a1.53,1.53,0,1,1,0,3.05Zm1.53,5.54a1.52,1.52,0,0,0-1.53-1.52h-6.18a1.53,1.53,0,0,0,0,3.05h6.18A1.52,1.52,0,0,0,293.64,275.08Zm0,7.07a1.53,1.53,0,0,0-1.53-1.53h-6.18a1.53,1.53,0,0,0,0,3.05h6.18A1.52,1.52,0,0,0,293.64,282.15Zm0,7.07a1.52,1.52,0,0,0-1.53-1.53h-6.18a1.53,1.53,0,0,0,0,3.05h6.18A1.52,1.52,0,0,0,293.64,289.22Zm0,7.06a1.52,1.52,0,0,0-1.53-1.52h-6.18a1.53,1.53,0,0,0,0,3.05h6.18A1.52,1.52,0,0,0,293.64,296.28Zm0,7.07a1.52,1.52,0,0,0-1.53-1.52h-6.18a1.53,1.53,0,0,0,0,3.05h6.18A1.53,1.53,0,0,0,293.64,303.35Zm0,7.07a1.52,1.52,0,0,0-1.53-1.53h-6.18a1.53,1.53,0,0,0,0,3.05h6.18A1.52,1.52,0,0,0,293.64,310.42Zm0,7.06a1.52,1.52,0,0,0-1.53-1.52h-6.18a1.53,1.53,0,0,0,0,3.05h6.18A1.52,1.52,0,0,0,293.64,317.48ZM316.77,268a1.52,1.52,0,0,0-1.52-1.53H299a1.53,1.53,0,0,0,0,3.05h16.24A1.52,1.52,0,0,0,316.77,268Zm0,7.06a1.52,1.52,0,0,0-1.52-1.52H299a1.53,1.53,0,0,0,0,3.05h16.24A1.52,1.52,0,0,0,316.77,275.08Zm0,7.07a1.53,1.53,0,0,0-1.52-1.53H299a1.53,1.53,0,0,0,0,3.05h16.24A1.52,1.52,0,0,0,316.77,282.15Zm0,7.07a1.52,1.52,0,0,0-1.52-1.53H299a1.53,1.53,0,0,0,0,3.05h16.24A1.52,1.52,0,0,0,316.77,289.22Zm0,7.06a1.52,1.52,0,0,0-1.52-1.52H299a1.53,1.53,0,0,0,0,3.05h16.24A1.52,1.52,0,0,0,316.77,296.28Zm19.43,7.07a1.52,1.52,0,0,0-1.52-1.52H318.45a1.53,1.53,0,1,0,0,3.05h16.23A1.53,1.53,0,0,0,336.2,303.35Zm0,7.07a1.52,1.52,0,0,0-1.52-1.53H318.45a1.53,1.53,0,1,0,0,3.05h16.23A1.52,1.52,0,0,0,336.2,310.42Zm0,7.06a1.52,1.52,0,0,0-1.52-1.52H318.45a1.53,1.53,0,1,0,0,3.05h16.23A1.52,1.52,0,0,0,336.2,317.48ZM323.91,268a1.77,1.77,0,1,0-1.76,1.76A1.76,1.76,0,0,0,323.91,268Zm5.3,0a1.77,1.77,0,1,0-1.76,1.76A1.76,1.76,0,0,0,329.21,268Zm5.3,0a1.77,1.77,0,1,0-1.76,1.76A1.76,1.76,0,0,0,334.51,268Zm5.3,0a1.77,1.77,0,1,0-1.76,1.76A1.76,1.76,0,0,0,339.81,268Zm5.3,0a1.77,1.77,0,1,0-1.76,1.76A1.76,1.76,0,0,0,345.11,268Zm5.3,0a1.77,1.77,0,1,0-1.76,1.76A1.76,1.76,0,0,0,350.41,268Zm-26.5,14.13a1.77,1.77,0,1,0-1.76,1.77A1.76,1.76,0,0,0,323.91,282.15Zm5.3,0a1.77,1.77,0,1,0-1.76,1.77A1.76,1.76,0,0,0,329.21,282.15Zm5.3,0a1.77,1.77,0,1,0-1.76,1.77A1.76,1.76,0,0,0,334.51,282.15Zm5.3,0a1.77,1.77,0,1,0-1.76,1.77A1.76,1.76,0,0,0,339.81,282.15Zm5.3,0a1.77,1.77,0,1,0-1.76,1.77A1.76,1.76,0,0,0,345.11,282.15Zm5.3,0a1.77,1.77,0,1,0-1.76,1.77A1.76,1.76,0,0,0,350.41,282.15ZM342,302.47a1.77,1.77,0,1,0-1.76,1.76A1.76,1.76,0,0,0,342,302.47Zm5.3,0a1.77,1.77,0,1,0-1.76,1.76A1.76,1.76,0,0,0,347.32,302.47Zm5.3,0a1.77,1.77,0,1,0-1.76,1.76A1.76,1.76,0,0,0,352.62,302.47Zm5.3,0a1.77,1.77,0,1,0-1.76,1.76A1.76,1.76,0,0,0,357.92,302.47Zm5.3,0a1.77,1.77,0,1,0-1.76,1.76A1.76,1.76,0,0,0,363.22,302.47Zm5.3,0a1.77,1.77,0,1,0-1.76,1.76A1.76,1.76,0,0,0,368.52,302.47ZM342,317a1.77,1.77,0,1,0-1.76,1.77A1.77,1.77,0,0,0,342,317Zm5.3,0a1.77,1.77,0,1,0-1.76,1.77A1.77,1.77,0,0,0,347.32,317Zm5.3,0a1.77,1.77,0,1,0-1.76,1.77A1.77,1.77,0,0,0,352.62,317Zm5.3,0a1.77,1.77,0,1,0-1.76,1.77A1.77,1.77,0,0,0,357.92,317Zm5.3,0a1.77,1.77,0,1,0-1.76,1.77A1.77,1.77,0,0,0,363.22,317Zm5.3,0a1.77,1.77,0,1,0-1.76,1.77A1.77,1.77,0,0,0,368.52,317Z" style="fill:#92E3A9"></path><path d="M74.67,435H428.5V115.12L416.76,120l-78.83,59.2-97.66,70.24-82.94,70.23-49.5,51.5L81,410.43S73.83,428.3,74.67,435Z" style="fill:#cfcfcf;stroke:#263238;stroke-linejoin:round"></path><polygon points="421.67 117.98 421.67 434.95 428.5 434.95 428.5 115.12 421.67 117.98" style="fill:#cfcfcf;stroke:#263238;stroke-linejoin:round"></polygon><rect x="421.67" y="183.68" width="6.84" height="68" style="fill:#828282;stroke:#263238;stroke-linejoin:round"></rect><path d="M249.51,343.59H161s-16.73.76-28.52-8.5" style="fill:none;stroke:#263238;stroke-miterlimit:10"></path><line x1="261.37" y1="343.59" x2="255.94" y2="343.59" style="fill:none;stroke:#263238;stroke-miterlimit:10"></line><path d="M261.37,333.43H161a46.78,46.78,0,0,1-6.24-.28" style="fill:none;stroke:#263238;stroke-miterlimit:10"></path><line x1="261.37" y1="323.27" x2="160.95" y2="323.27" style="fill:none;stroke:#263238;stroke-miterlimit:10"></line><rect x="274.55" y="260.12" width="141.21" height="91.37" style="fill:#b0b0b0;stroke:#263238;stroke-miterlimit:10"></rect><polygon points="415.75 321.72 380.45 285.73 345.15 325.18 314.69 303.73 274.55 351.49 415.75 351.49 415.75 321.72" style="fill:#828282;stroke:#263238;stroke-miterlimit:10"></polygon><circle cx="295.57" cy="285.34" r="10.25" style="fill:#828282;stroke:#263238;stroke-miterlimit:10"></circle><polygon points="274.55 214.88 368.23 157.91 415.75 157.91 415.75 249.28 274.55 249.28 274.55 214.88" style="fill:#b0b0b0;stroke:#263238;stroke-miterlimit:10"></polygon><polygon points="274.55 249.28 314.69 201.52 345.15 222.98 380.45 183.53 415.75 219.52 415.75 249.28 274.55 249.28" style="fill:#828282;stroke:#263238;stroke-miterlimit:10"></polygon><path d="M84.2,417.94H417.83V358.41H152s-15.78-1-27-12.15C125,346.26,84.2,392.32,84.2,417.94Z" style="fill:none;stroke:#263238;stroke-miterlimit:10"></path><line x1="417.83" y1="358.41" x2="84.2" y2="417.94" style="fill:none;stroke:#263238;stroke-miterlimit:10"></line><path d="M116.14,362.29c2.6,4.1,6.94,8.32,14.19,11.32,19.34,8,287.5,44.33,287.5,44.33" style="fill:none;stroke:#263238;stroke-miterlimit:10"></path><path d="M428.5,114.5s-43.43,70.42-63.06,137.32-13.82,183.23-13.82,183.23H74.67s5.09-33.49,27.27-56.86c31.37-33,91.5-98.06,158.4-146.78s101-70.32,109.7-77.59S428.5,114.5,428.5,114.5Z" style="opacity:0.2"></path><path d="M428.5,114.5s-23.83,12.12-53.32,52.66S314,274.78,314,274.78,95.53,327.31,74.67,435C74.67,435,63,336,428.5,114.5Z" style="fill:#fff;stroke:#263238;stroke-linejoin:round"></path></g></svg>